<?xml version="1.0" encoding="utf-8"?>
<!-- Generator: Adobe Illustrator 16.0.4, SVG Export Plug-In . SVG Version: 6.00 Build 0)  -->
<!DOCTYPE svg PUBLIC "-//W3C//DTD SVG 1.1//EN" "http://www.w3.org/Graphics/SVG/1.1/DTD/svg11.dtd">
<svg version="1.1" xmlns="http://www.w3.org/2000/svg" xmlns:xlink="http://www.w3.org/1999/xlink" x="0px" y="0px"
	 width="95.615px" height="109.096px" viewBox="0 0 95.615 109.096" enable-background="new 0 0 95.615 109.096"
	 xml:space="preserve">
<g id="Search">
</g>
<g id="Checkbox_white">
</g>
<g id="Checkbox_orange">
</g>
<g id="User">
</g>
<g id="Delete">
</g>
<g id="Info">
</g>
<g id="List">
</g>
<g id="Print">
</g>
<g id="Cart">
</g>
<g id="Miljöfarligt">
</g>
<g id="Filter">
</g>
<g id="PDF">
</g>
<g id="Svensk_flagga">
</g>
<g id="Bra_miljöval">
</g>
<g id="Bild_saknas_liten">
</g>
<g id="Bild_saknas_stor">
	<g>
		<path fill-rule="evenodd" clip-rule="evenodd" fill="#DFDFDF" d="M25.062,73.594h61.694V30.827H25.062V73.594z M8.167,31.381
			l10.669-4.321v30.538L8.167,31.381z M65.328,8.228l6.611,16.243H25.229L65.328,8.228z M68.701,0L0,27.829l18.836,46.283v5.839
			h74.148V24.47H78.66L68.701,0z"/>
		<path fill-rule="evenodd" clip-rule="evenodd" fill="#DFDFDF" d="M38.532,49.754c3.438,0,6.227-2.781,6.227-6.213
			c0-3.431-2.788-6.212-6.227-6.212c-3.439,0-6.228,2.781-6.228,6.212C32.305,46.973,35.093,49.754,38.532,49.754"/>
		<polygon fill-rule="evenodd" clip-rule="evenodd" fill="#DFDFDF" points="74.302,47.009 70.247,48.743 65.034,40.652 
			51.554,60.879 44.18,55.389 32.305,68.97 81.543,68.97 		"/>
		<g>
			<path fill="#E5E5E5" d="M17.283,100.725h2.867c1.259,0,2.65,0.588,2.65,2.243c0,0.755-0.456,1.354-0.924,1.606
				c0.756,0.3,1.331,1.199,1.331,2.027c0,1.535-1.296,2.398-2.698,2.398h-3.227V100.725z M20.293,104.059
				c0.576,0,1.141-0.191,1.141-1.008c0-0.647-0.553-0.983-1.26-0.983h-1.403v1.991H20.293z M20.533,107.585
				c0.768,0,1.211-0.372,1.211-1.151c0-0.588-0.491-1.092-1.271-1.092h-1.703v2.243H20.533z"/>
			<path fill="#E5E5E5" d="M25.023,100.725h1.486V109h-1.486V100.725z"/>
			<path fill="#E5E5E5" d="M28.959,100.725h1.487v6.872h3.538V109h-5.025V100.725z"/>
			<path fill="#E5E5E5" d="M35.607,100.725h2.398c2.818,0,4.306,1.523,4.306,4.197c0,2.579-1.535,4.078-4.317,4.078h-2.387V100.725z
				 M37.85,107.633c1.823,0,2.975-0.708,2.975-2.771c0-1.955-0.804-2.771-2.842-2.771h-0.889v5.541H37.85z"/>
			<path fill="#E5E5E5" d="M47.596,106.661l1.475-0.372c0.096,0.924,0.804,1.428,1.691,1.428c0.875,0,1.367-0.396,1.367-1.14
				c0-1.427-3.982-1.127-3.982-3.754c0-1.367,1.188-2.219,2.543-2.219c1.067,0,1.991,0.444,2.555,1.451l-1.235,0.756
				c-0.288-0.563-0.779-0.888-1.319-0.888c-0.563,0-1.031,0.408-1.031,0.911c0,1.319,3.982,1.02,3.982,3.767
				c0,1.547-1.296,2.494-2.879,2.494C49.299,109.096,47.859,108.292,47.596,106.661z"/>
			<path fill="#E5E5E5" d="M57.938,100.725h1.115L62.352,109h-1.607l-0.636-1.799h-3.214L56.246,109h-1.619L57.938,100.725z
				 M59.604,105.93l-1.104-3.011l-1.103,3.011H59.604z"/>
			<path fill="#E5E5E5" d="M63.963,100.725h1.486v4.317l4.15-4.317h1.99l-3.394,3.418L71.41,109h-1.775l-2.471-3.862l-1.715,1.716
				V109h-1.486V100.725z"/>
			<path fill="#E5E5E5" d="M72.902,100.725h1.475l3.479,5.793v-5.793h1.428V109h-1.487l-3.466-5.793V109h-1.428V100.725z"/>
			<path fill="#E5E5E5" d="M84.205,100.725h1.115L88.619,109h-1.607l-0.636-1.799h-3.214L82.514,109h-1.619L84.205,100.725z
				 M85.872,105.93l-1.104-3.011l-1.103,3.011H85.872z"/>
			<path fill="#E5E5E5" d="M89.57,106.661l1.476-0.372c0.097,0.924,0.804,1.428,1.691,1.428c0.876,0,1.367-0.396,1.367-1.14
				c0-1.427-3.981-1.127-3.981-3.754c0-1.367,1.188-2.219,2.542-2.219c1.067,0,1.991,0.444,2.555,1.451l-1.235,0.756
				c-0.287-0.563-0.779-0.888-1.319-0.888c-0.563,0-1.031,0.408-1.031,0.911c0,1.319,3.981,1.02,3.981,3.767
				c0,1.547-1.295,2.494-2.878,2.494C91.273,109.096,89.835,108.292,89.57,106.661z"/>
		</g>
	</g>
</g>
<g id="MSC">
</g>
<g id="Kött_från_Sverige">
</g>
<g id="Från_Sverige">
</g>
<g id="Svenskt_sigill">
</g>
<g id="Svanen">
</g>
<g id="Nyckelhålet">
</g>
<g id="KRAV">
</g>
<g id="Logotype">
</g>
<g id="Laktosfri">
</g>
<g id="Glutenfri">
</g>
</svg>
